Coordinates
version=1
nRows=37
nColumns=38
inDegrees=no

Units are S.I. units (second, meters, Newtons, ...)
If the header above contains a line with 'inDegrees', this indicates whether rotational values are in degrees (yes) or radians (no).

endheader
time	pelvis_tilt	pelvis_list	pelvis_rotation	pelvis_tx	pelvis_ty	pelvis_tz	hip_flexion_r	hip_adduction_r	hip_rotation_r	knee_angle_r	ankle_angle_r	subtalar_angle_r	mtp_angle_r	hip_flexion_l	hip_adduction_l	hip_rotation_l	knee_angle_l	ankle_angle_l	subtalar_angle_l	mtp_angle_l	lumbar_extension	lumbar_bending	lumbar_rotation	arm_flex_r	arm_add_r	arm_rot_r	elbow_flex_r	pro_sup_r	wrist_flex_r	wrist_dev_r	arm_flex_l	arm_add_l	arm_rot_l	elbow_flex_l	pro_sup_l	wrist_flex_l	wrist_dev_l
1.27	-0.0746266	1.22783	-1.42772	0.970972	0.179897	0.955748	-0.127489	-0.103656	-0.159047	1.2582	-0.462153	0	0	-0.300107	-0.0257133	-0.353898	0.22219	-0.227255	0	0	-0.383806	0.0777005	-0.0370827	-0.233169	0.0128453	-0.817279	0.663926	0.793156	0	0	0.0278355	-0.36336	0.72972	0.641799	1.13997	0	0
1.28	-0.089451	1.22646	-1.40996	0.972083	0.171404	0.9567	-0.0990484	-0.10047	-0.158715	1.26668	-0.452374	0	0	-0.314091	-0.0318057	-0.353118	0.216999	-0.223588	0	0	-0.384968	0.0842973	-0.039486	-0.231262	0.0109927	-0.816317	0.662053	0.792866	0	0	0.0503591	-0.360128	0.738368	0.634362	1.1459	0	0
1.29	-0.105012	1.22736	-1.39129	0.973158	0.16282	0.957385	-0.0690875	-0.0966906	-0.157636	1.27027	-0.439393	0	0	-0.325131	-0.0379699	-0.350989	0.211902	-0.218707	0	0	-0.382836	0.0914884	-0.0402092	-0.230847	0.0092962	-0.815997	0.660478	0.790927	0	0	0.0754778	-0.352908	0.745395	0.62143	1.14706	0	0
1.3	-0.119276	1.22715	-1.37427	0.974178	0.154172	0.957976	-0.0421386	-0.0926371	-0.156973	1.26825	-0.428249	0	0	-0.337487	-0.0439911	-0.350683	0.206561	-0.215767	0	0	-0.382327	0.0978468	-0.0423029	-0.22952	0.00776253	-0.814882	0.659123	0.789809	0	0	0.0975636	-0.348908	0.750198	0.6146	1.14903	0	0
1.31	-0.13156	1.22605	-1.35823	0.975258	0.145639	0.958449	-0.0177451	-0.0887611	-0.157849	1.26195	-0.414952	0	0	-0.350376	-0.049852	-0.349853	0.201674	-0.212788	0	0	-0.382774	0.103532	-0.0447094	-0.228168	0.00648202	-0.813606	0.65781	0.78825	0	0	0.119229	-0.346985	0.756214	0.610649	1.1574	0	0
1.32	-0.142461	1.22491	-1.34325	0.976372	0.137193	0.958801	0.00547826	-0.0853398	-0.159449	1.2525	-0.398913	0	0	-0.36331	-0.0552088	-0.348627	0.196761	-0.209264	0	0	-0.383692	0.109032	-0.0467806	-0.227106	0.00522874	-0.811801	0.657191	0.786493	0	0	0.14132	-0.344132	0.759455	0.607032	1.16706	0	0
1.33	-0.152634	1.22402	-1.32899	0.977467	0.128797	0.959027	0.0278203	-0.0821672	-0.161646	1.24048	-0.3793	0	0	-0.376213	-0.0600495	-0.347042	0.191478	-0.204703	0	0	-0.384643	0.114637	-0.048311	-0.226295	0.004034	-0.809775	0.657455	0.783763	0	0	0.16326	-0.339377	0.757584	0.602497	1.17615	0	0
1.34	-0.160663	1.22389	-1.31712	0.978528	0.120452	0.959062	0.0493855	-0.0802759	-0.164741	1.22545	-0.359004	0	0	-0.388598	-0.0637084	-0.345626	0.186149	-0.199981	0	0	-0.385283	0.119446	-0.0502119	-0.225109	0.0029548	-0.80748	0.658319	0.780651	0	0	0.183867	-0.33437	0.751292	0.599382	1.18364	0	0
1.35	-0.167027	1.22398	-1.30711	0.979523	0.112186	0.958956	0.0694389	-0.0790366	-0.167999	1.20694	-0.337468	0	0	-0.400944	-0.0666193	-0.343739	0.180667	-0.195179	0	0	-0.386225	0.123525	-0.0525962	-0.222975	0.00185566	-0.804344	0.658994	0.777769	0	0	0.203265	-0.32974	0.741658	0.598273	1.19081	0	0
1.36	-0.172497	1.22421	-1.29807	0.980422	0.103953	0.958731	0.0876424	-0.0776095	-0.17037	1.1842	-0.317163	0	0	-0.413148	-0.069287	-0.341729	0.17511	-0.190374	0	0	-0.387391	0.127189	-0.0554897	-0.219981	0.000852856	-0.800592	0.65955	0.775165	0	0	0.2213	-0.325736	0.729024	0.599321	1.19808	0	0
1.37	-0.178056	1.22428	-1.28898	0.981205	0.0957242	0.958439	0.103215	-0.0744381	-0.170628	1.15599	-0.296746	0	0	-0.425361	-0.0722835	-0.339834	0.16949	-0.184905	0	0	-0.389014	0.13085	-0.0591164	-0.216166	-0.000282068	-0.795541	0.659909	0.772261	0	0	0.237125	-0.321805	0.709909	0.602426	1.20872	0	0
1.38	-0.183772	1.22412	-1.27979	0.981877	0.0875049	0.958119	0.116049	-0.0691123	-0.167798	1.12199	-0.281461	0	0	-0.437467	-0.0757731	-0.338518	0.164348	-0.180108	0	0	-0.391132	0.134524	-0.0634452	-0.211175	-0.0014778	-0.790069	0.659473	0.770031	0	0	0.251324	-0.31889	0.68871	0.608085	1.21951	0	0
1.39	-0.189766	1.22383	-1.27055	0.982423	0.0792964	0.957756	0.125873	-0.0615564	-0.161348	1.08083	-0.271014	0	0	-0.449208	-0.0796605	-0.338026	0.15998	-0.175625	0	0	-0.393605	0.138194	-0.0681307	-0.205049	-0.00269458	-0.784641	0.65822	0.768094	0	0	0.264298	-0.316652	0.666215	0.615513	1.231	0	0
1.4	-0.195193	1.22317	-1.26221	0.982837	0.0710963	0.957378	0.131733	-0.0524303	-0.151748	1.03135	-0.264795	0	0	-0.461043	-0.0835529	-0.337579	0.156103	-0.170749	0	0	-0.396984	0.141705	-0.0733663	-0.197813	-0.00399878	-0.778699	0.656411	0.765866	0	0	0.274911	-0.314737	0.638427	0.625535	1.24689	0	0
1.41	-0.200106	1.22278	-1.2547	0.983161	0.0628717	0.956926	0.134602	-0.0430821	-0.141481	0.97513	-0.261343	0	0	-0.472169	-0.0872861	-0.336918	0.153161	-0.166025	0	0	-0.400346	0.144866	-0.078369	-0.190206	-0.00533046	-0.772996	0.654305	0.764145	0	0	0.28479	-0.31324	0.611281	0.636867	1.26235	0	0
1.42	-0.203721	1.22366	-1.24885	0.983472	0.0545795	0.956279	0.135998	-0.0356047	-0.13296	0.915019	-0.257902	0	0	-0.481548	-0.090013	-0.336289	0.15132	-0.161489	0	0	-0.402673	0.147187	-0.0832316	-0.182488	-0.00681532	-0.767451	0.652052	0.76279	0	0	0.293805	-0.311929	0.584969	0.649248	1.27677	0	0
1.43	-0.206494	1.22588	-1.24406	0.983748	0.0461507	0.955377	0.136357	-0.0303014	-0.128	0.852836	-0.252597	0	0	-0.489106	-0.091973	-0.336859	0.15081	-0.156764	0	0	-0.403556	0.148784	-0.0878315	-0.175121	-0.00845957	-0.761647	0.649658	0.762068	0	0	0.302321	-0.310651	0.560146	0.662225	1.29107	0	0
1.44	-0.207424	1.22889	-1.24116	0.984013	0.0375526	0.95427	0.135213	-0.0272862	-0.127343	0.789384	-0.245855	0	0	-0.495888	-0.0930276	-0.337121	0.150943	-0.151331	0	0	-0.403503	0.149518	-0.0921968	-0.168325	-0.00998083	-0.755929	0.647511	0.761471	0	0	0.310168	-0.309359	0.536924	0.675752	1.30572	0	0
1.45	-0.205908	1.23311	-1.24099	0.984266	0.0287639	0.952908	0.133414	-0.0267453	-0.130944	0.725342	-0.237862	0	0	-0.50175	-0.0926301	-0.336735	0.151499	-0.145108	0	0	-0.402203	0.148913	-0.096268	-0.162303	-0.0111578	-0.750743	0.646103	0.760307	0	0	0.317006	-0.308041	0.5149	0.689939	1.32053	0	0
1.46	-0.203283	1.23785	-1.24239	0.984389	0.0197495	0.951359	0.130362	-0.0272155	-0.138066	0.659764	-0.229187	0	0	-0.507417	-0.0916327	-0.337261	0.152673	-0.138463	0	0	-0.400042	0.147379	-0.0997755	-0.157303	-0.0119901	-0.745569	0.645192	0.758995	0	0	0.322918	-0.306876	0.494331	0.70458	1.33503	0	0
1.47	-0.199905	1.24255	-1.24474	0.984397	0.0104827	0.9497	0.125076	-0.0277558	-0.148496	0.590695	-0.221963	0	0	-0.513436	-0.0905875	-0.338218	0.154549	-0.130916	0	0	-0.397382	0.145347	-0.102773	-0.153458	-0.0124596	-0.740296	0.644705	0.757712	0	0	0.327983	-0.305682	0.475456	0.71925	1.34851	0	0
1.48	-0.195483	1.24592	-1.2478	0.984312	0.000996679	0.948071	0.115801	-0.0272945	-0.160608	0.516735	-0.219398	0	0	-0.521358	-0.0900559	-0.338869	0.156124	-0.122641	0	0	-0.395824	0.14329	-0.106095	-0.150592	-0.0125471	-0.734216	0.64518	0.755865	0	0	0.331227	-0.304606	0.455607	0.735236	1.36276	0	0
1.49	-0.18983	1.25291	-1.25316	0.984037	-0.00874593	0.946048	0.112398	-0.0284125	-0.173611	0.45135	-0.214412	0	0	-0.523599	-0.0878011	-0.339376	0.15846	-0.117236	0	0	-0.38998	0.13917	-0.106873	-0.149644	-0.0118753	-0.730828	0.646029	0.754446	0	0	0.336482	-0.303538	0.44557	0.747928	1.36985	0	0
1.5	-0.183973	1.26069	-1.25929	0.983577	-0.0186354	0.943922	0.109311	-0.0294964	-0.187012	0.387303	-0.212453	0	0	-0.523599	-0.0855521	-0.340674	0.161985	-0.11115	0	0	-0.383042	0.134361	-0.107296	-0.148854	-0.0111511	-0.727658	0.645943	0.752859	0	0	0.34065	-0.302614	0.436302	0.760225	1.37675	0	0
1.51	-0.17375	1.26993	-1.27031	0.982749	-0.0288355	0.941417	0.115153	-0.0403476	-0.216662	0.351275	-0.209717	0	0	-0.523599	-0.0824055	-0.342916	0.167495	-0.100886	0	0	-0.374307	0.127002	-0.109282	-0.148673	-0.0099958	-0.722224	0.645533	0.750163	0	0	0.339922	-0.302951	0.421102	0.776381	1.38843	0	0
1.52	-0.171913	1.27828	-1.27334	0.981994	-0.0387208	0.939357	0.113265	-0.0371812	-0.221898	0.296624	-0.204693	0	0	-0.523599	-0.0817454	-0.343701	0.173455	-0.0940519	0	0	-0.36693	0.122969	-0.109743	-0.146531	-0.00981762	-0.718123	0.642989	0.747612	0	0	0.340959	-0.301663	0.408861	0.788555	1.39823	0	0
1.53	-0.17384	1.28446	-1.27176	0.981206	-0.0486664	0.937599	0.1061	-0.0291823	-0.221006	0.238827	-0.204163	0	0	-0.523599	-0.083745	-0.344408	0.180235	-0.0891194	0	0	-0.361176	0.120929	-0.109897	-0.144358	-0.00938106	-0.715747	0.640231	0.74499	0	0	0.342667	-0.299992	0.399767	0.798365	1.40617	0	0
1.54	-0.177416	1.28905	-1.26799	0.980311	-0.0588209	0.936002	0.0972206	-0.0205852	-0.218792	0.188382	-0.209374	0	0	-0.523599	-0.087531	-0.346345	0.188222	-0.0846387	0	0	-0.35641	0.119797	-0.110464	-0.142478	-0.00874829	-0.713518	0.637274	0.743022	0	0	0.343255	-0.298648	0.391352	0.807848	1.41329	0	0
1.55	-0.179335	1.2927	-1.2654	0.97949	-0.0691042	0.934504	0.0914374	-0.0141905	-0.220832	0.158125	-0.217003	0	0	-0.523599	-0.0914143	-0.348887	0.197053	-0.0812035	0	0	-0.352537	0.118798	-0.111642	-0.140814	-0.00787262	-0.711768	0.634832	0.741594	0	0	0.342777	-0.297503	0.383658	0.81716	1.41929	0	0
1.56	-0.179718	1.29566	-1.26396	0.978912	-0.0794502	0.933149	0.0913322	-0.0104899	-0.228177	0.154407	-0.225059	0	0	-0.523599	-0.0949589	-0.35171	0.206758	-0.0776798	0	0	-0.349938	0.118226	-0.115643	-0.137985	-0.00749408	-0.708409	0.632385	0.740624	0	0	0.337689	-0.29601	0.36812	0.829168	1.42982	0	0
1.57	-0.178686	1.29917	-1.26386	0.978602	-0.089871	0.931875	0.10319	-0.0113536	-0.245715	0.192663	-0.211939	0	0	-0.523599	-0.0973148	-0.353217	0.216139	-0.0773079	0	0	-0.346848	0.117681	-0.120796	-0.134942	-0.00736731	-0.705058	0.629901	0.740442	0	0	0.330415	-0.293569	0.349807	0.840717	1.44012	0	0
1.58	-0.178371	1.30225	-1.2629	0.978329	-0.100475	0.930746	0.117971	-0.013309	-0.260482	0.248525	-0.193694	0	0	-0.523599	-0.10008	-0.354809	0.225952	-0.0787746	0	0	-0.343385	0.117484	-0.124353	-0.133015	-0.00644032	-0.704886	0.627655	0.741625	0	0	0.325157	-0.291479	0.33956	0.848307	1.44237	0	0
1.59	-0.179914	1.30532	-1.26014	0.977957	-0.111395	0.929738	0.132113	-0.0145088	-0.267813	0.308397	-0.176536	0	0	-0.523599	-0.103437	-0.356941	0.236193	-0.0822595	0	0	-0.338846	0.1176	-0.12796	-0.131661	-0.00508705	-0.705962	0.624913	0.744215	0	0	0.31833	-0.288435	0.328594	0.853776	1.44435	0	0
1.6	-0.184739	1.3051	-1.25257	0.977603	-0.122735	0.929219	0.137889	-0.0120321	-0.272475	0.358912	-0.165752	0	0	-0.523599	-0.109877	-0.36002	0.246488	-0.0886045	0	0	-0.336216	0.119875	-0.132817	-0.131088	-0.00382191	-0.706757	0.621655	0.748022	0	0	0.310044	-0.285011	0.317633	0.857555	1.44539	0	0
1.61	-0.190673	1.30489	-1.24347	0.977201	-0.134412	0.928816	0.139092	-0.00709894	-0.273564	0.397143	-0.155582	0	0	-0.523599	-0.117126	-0.362539	0.257557	-0.0964041	0	0	-0.332471	0.122475	-0.138409	-0.131317	-0.00248851	-0.707822	0.618212	0.751945	0	0	0.300161	-0.281548	0.306898	0.859819	1.44541	0	0
1.62	-0.199473	1.30412	-1.23109	0.97678	-0.146314	0.928641	0.134648	0.00107365	-0.272104	0.416147	-0.14733	0	0	-0.523599	-0.12573	-0.364457	0.269782	-0.106178	0	0	-0.32855	0.126171	-0.144708	-0.131586	-0.00136543	-0.708893	0.614115	0.756302	0	0	0.288935	-0.277817	0.295573	0.86061	1.44558	0	0
1.63	-0.210911	1.30277	-1.21591	0.976397	-0.158311	0.928742	0.125955	0.0111014	-0.268329	0.416237	-0.15132	0	0	-0.523599	-0.135232	-0.365454	0.283882	-0.115653	0	0	-0.324742	0.131048	-0.149771	-0.132728	-0.000928806	-0.709538	0.609973	0.75802	0	0	0.27911	-0.273607	0.288589	0.857548	1.44334	0	0
